<?xml version="1.0" encoding="UTF-8"?>
<!DOCTYPE svg PUBLIC "-//W3C//DTD SVG 1.1//EN" "http://www.w3.org/Graphics/SVG/1.1/DTD/svg11.dtd">
<!-- Creator: CorelDRAW 2018 (64-Bit Evaluation Version) -->
<svg xmlns="http://www.w3.org/2000/svg" xml:space="preserve" width="100%" height="100%" version="1.1" style="shape-rendering:geometricPrecision; text-rendering:geometricPrecision; image-rendering:optimizeQuality; fill-rule:evenodd; clip-rule:evenodd"
viewBox="0 0 1946.77 1910.96"
 xmlns:xlink="http://www.w3.org/1999/xlink">
 <defs>
  <style type="text/css">
   <![CDATA[
    .fil0 {fill:#FEFEFE}
   ]]>
  </style>
 </defs>
 <g id="Layer_x0020_1">
  <metadata id="CorelCorpID_0Corel-Layer"/>
  <g id="_1872402268672">
   <path class="fil0" d="M1371.9 1724.11l574.87 -1681.79 -390.65 0 -132.27 493.64c0,0 31.35,346.27 -268.15,684.84l216.21 503.31z"/>
   <path class="fil0" d="M810.61 1910.96c0,0 -302.76,-214.86 247.42,-826.89 0,0 452.51,-468.79 58.6,-778.06 0,0 341.82,192.07 -208.35,738.99 0,0 -501.34,478.55 -97.67,865.95z"/>
   <path class="fil0" d="M563.8 1724.11c0,0 -262.39,-289.3 272.85,-750.72 0,0 699.93,-677.14 -237.65,-973.39 517.62,306.02 154.33,742.69 6.51,844.52l-234.39 -805.45 -371.12 0 419.95 1364.04c0,0 -13.02,149.75 143.85,321z"/>
  </g>
 </g>
</svg>
