<?xml version="1.0" encoding="UTF-8"?>
<!DOCTYPE svg PUBLIC "-//W3C//DTD SVG 1.1//EN" "http://www.w3.org/Graphics/SVG/1.1/DTD/svg11.dtd">
<!-- Creator: CorelDRAW 2018 (64-Bit Evaluation Version) -->
<svg xmlns="http://www.w3.org/2000/svg" xml:space="preserve" width="100%" height="100%" version="1.1" style="shape-rendering:geometricPrecision; text-rendering:geometricPrecision; image-rendering:optimizeQuality; fill-rule:evenodd; clip-rule:evenodd"
viewBox="0 0 6561.65 5383.13"
 xmlns:xlink="http://www.w3.org/1999/xlink">
 <g id="Layer_x0020_1">
  <metadata id="CorelCorpID_0Corel-Layer"/>
  <path class="fil0" d="M4692.67 4220.61c-28.14,-22.01 -450.09,-662.41 -459,-697.72l459.82 2.44 -0.82 695.28zm-2815.39 -2045.04l625.6 -0.15c49.09,23.64 55.62,56.48 86.11,102.39l207.35 318.87c51.74,74.98 89.11,142.26 142.54,218.4 50.87,72.48 107.64,151.12 136.31,219.74l-1197.96 -2.48 -0.53 -530.81 0.58 -325.96zm2810.67 857.87c-169.58,12.98 -385.36,2.19 -560.07,2.18 -296.77,-0.01 -215.35,15.2 -352.82,-195.18 -72.57,-111.06 -421.33,-616.79 -432.72,-666.27l1351.18 2.54 -5.57 856.73zm-2810.67 -1827.37c43.19,28.17 306.91,444.1 318.04,476.87l-317.31 -1.18 -1.61 -291.35 0.89 -184.35zm-748.65 477.54c-218.89,11.7 -472.86,2.99 -695.2,2.19 -103.6,-0.37 -234.42,-16.19 -310.82,32.77 -65.56,42 -122.86,125.6 -122.62,213.41 0.3,111.37 79.87,189.69 136.33,216.67 112.47,53.76 760.03,11.36 992.81,29.22l-0.39 854.11c-226.14,11.89 -466.81,1.31 -694.93,2.14 -127.54,0.46 -437.77,-27 -433.01,245.3 1.99,114.02 75.38,188.39 132.21,217.22 104.61,53.07 775.69,15.93 996.65,28.67 -5.65,371 2.06,743.89 -0.32,1115.12 -1.81,281.81 -38.96,733.8 374.32,736.59 387.7,2.62 370.86,-373.8 373.45,-736.59 2.64,-370.84 -2.26,-742.32 0.11,-1116.52l1532.01 1.67 562.1 873.42c124.68,190.86 456.15,713.64 596.77,831.98 123.28,103.75 346.14,196 560.67,129.86 189.85,-58.54 259.17,-162.24 286.19,-417.85 16.74,-158.31 10.94,-1197.69 6.37,-1414.59 355.54,-48.89 915.74,66.19 1066.59,-69.66 13.13,-11.82 8.85,-7.16 20.54,-22.06 34.56,-44.05 53.41,-104.4 53.17,-157.41 -0.46,-104.79 -65.02,-183.07 -132.05,-215.94 -115.31,-56.54 -834.04,-21.7 -1007.15,-29.43l4.74 -857.17c211.72,-15.52 469.95,-2.06 686.8,-2.2 165,-0.1 456.45,33.33 447.2,-255.79 -12.44,-388.8 -622.57,-171.36 -1138.67,-237.55 -4.01,-341.35 -0.77,-685.22 -0.78,-1026.85 -0,-332.31 -1.41,-653.72 -362.42,-652.87 -356.72,0.83 -366.07,340.23 -365.98,666.76 0.09,335.54 6.44,676.37 -0.58,1011.28 -131.24,19.43 -1615.03,17.16 -1683.81,-3.26 -30.54,-17.56 -160.98,-245.14 -199.97,-299.39 -169.77,-236.2 -733.67,-1156.26 -860.25,-1265.98 -116.26,-100.78 -315.9,-150.98 -506.37,-72.04 -147.31,61.05 -258.83,172.69 -292.92,362.89 -57.46,320.61 -15.41,920.8 -20.81,1281.89z"/>
 </g>
</svg>
